<svg xmlns="http://www.w3.org/2000/svg" height="63" viewBox="0 0 212.789 83.777" width="159"><path d="M108.46 56.818c-4.764 0-9.068-.526-12.902-4.362l4.94-4.94c2.502 2.498 5.756 2.847 8.08 2.847 2.616 0 5.345-.87 5.345-3.136 0-1.513-.81-2.56-3.194-2.792l-4.768-.464c-5.464-.52-8.833-2.902-8.833-8.486 0-6.274 5.517-9.646 11.68-9.646 4.708 0 8.66.814 11.566 3.544l-4.648 4.708c-1.744-1.568-4.42-2.03-7.035-2.03-3.02 0-4.3 1.393-4.3 2.903 0 1.105.466 2.384 3.14 2.616l4.768.465c5.983.58 9.01 3.778 9.01 8.893-.01 6.682-5.71 9.88-12.86 9.88zM131.53 43.68c0 3.895 2.384 6.743 6.628 6.743 3.31 0 4.938-.93 6.856-2.848l4.593 4.474c-3.08 3.08-6.045 4.77-11.51 4.77-7.148 0-14.005-3.256-14.005-15.523 0-9.88 5.346-15.46 13.19-15.46 8.43 0 13.195 6.164 13.195 14.475v3.37h-18.95zm10.82-8.43c-.818-1.798-2.504-3.136-5.06-3.136-2.56 0-4.243 1.337-5.057 3.136-.466 1.107-.637 1.922-.697 3.26h11.51c-.06-1.34-.23-2.153-.69-3.26zM161.35 43.68c0 3.895 2.386 6.743 6.625 6.743 3.314 0 4.942-.93 6.86-2.848l4.592 4.474c-3.08 3.08-6.046 4.77-11.508 4.77-7.15 0-14.01-3.256-14.01-15.523 0-9.88 5.348-15.46 13.195-15.46 8.427 0 13.194 6.164 13.194 14.475v3.37h-18.95zm10.81-8.43c-.815-1.798-2.502-3.136-5.057-3.136-2.56 0-4.246 1.337-5.06 3.136-.465 1.107-.64 1.922-.696 3.26h11.51c-.05-1.34-.22-2.153-.69-3.26zM203.43 56.47l-7.436-12.618-3.204 3.61v9.008h-7.553V15.083h7.553v23.484l10.058-12.382h9.13l-10.814 12.207 11.623 18.08h-9.36z"/><circle cx="41.9" cy="41.9" r="41.9" fill="#0D3880"/><path d="M42.883 15.978a2.615 2.615 0 0 1 2.612-2.62 2.618 2.618 0 1 1-2.612 2.62zM51.026 24.778a2.887 2.887 0 1 1 5.775-.003 2.887 2.887 0 0 1-5.774.003zM42.883 24.778a2.612 2.612 0 0 1 2.612-2.616c1.45 0 2.622 1.17 2.622 2.616a2.617 2.617 0 0 1-5.234 0zM59.697 33.608a3.24 3.24 0 0 1 3.244-3.243 3.235 3.235 0 0 1 3.24 3.243c0 1.79-1.446 3.24-3.24 3.24a3.24 3.24 0 0 1-3.243-3.24zM51.026 33.58a2.886 2.886 0 1 1 5.773 0 2.886 2.886 0 0 1-5.774 0zM42.883 33.58a2.617 2.617 0 1 1 2.612 2.618 2.613 2.613 0 0 1-2.612-2.617zM35.1 33.58a2.288 2.288 0 0 1 2.29-2.288c1.27 0 2.292 1.024 2.292 2.29s-1.023 2.29-2.292 2.29a2.29 2.29 0 0 1-2.29-2.29zM28.61 33.58c0-1.084.88-1.965 1.964-1.965 1.083 0 1.96.88 1.96 1.966 0 1.085-.878 1.965-1.96 1.965a1.963 1.963 0 0 1-1.963-1.964zM22.425 33.58c0-.905.73-1.636 1.636-1.636.91 0 1.638.73 1.638 1.637s-.73 1.64-1.637 1.64a1.635 1.635 0 0 1-1.635-1.64zM17.19 33.58a1.31 1.31 0 0 1 2.62 0 1.31 1.31 0 0 1-1.308 1.31 1.31 1.31 0 0 1-1.313-1.31zM12.233 33.58a.98.98 0 0 1 1.963 0 .98.98 0 0 1-.98.982.98.98 0 0 1-.983-.98zM8.045 33.58a.654.654 0 1 1 1.31.004.654.654 0 0 1-1.31-.003zM59.697 42.408a3.24 3.24 0 0 1 6.482 0 3.235 3.235 0 0 1-3.237 3.24 3.24 3.24 0 0 1-3.243-3.24zM51.026 42.38a2.885 2.885 0 0 1 2.884-2.883c1.598 0 2.89 1.29 2.89 2.884a2.89 2.89 0 0 1-2.89 2.89 2.89 2.89 0 0 1-2.884-2.89zM42.883 42.38a2.61 2.61 0 0 1 2.612-2.615 2.615 2.615 0 0 1 2.622 2.616A2.62 2.62 0 0 1 45.495 45a2.615 2.615 0 0 1-2.612-2.62zM35.1 42.38a2.288 2.288 0 0 1 2.29-2.288c1.27 0 2.292 1.023 2.292 2.29s-1.023 2.29-2.292 2.29a2.29 2.29 0 0 1-2.29-2.29zM28.61 42.38a1.962 1.962 0 0 1 3.925 0c0 1.084-.88 1.965-1.96 1.965a1.963 1.963 0 0 1-1.964-1.964zM22.425 42.38c0-.905.73-1.634 1.636-1.634.91 0 1.638.73 1.638 1.635a1.636 1.636 0 0 1-3.273 0zM17.19 42.38a1.31 1.31 0 0 1 2.62 0 1.31 1.31 0 0 1-2.622 0zM12.233 42.38c0-.54.438-.98.982-.98a.98.98 0 0 1 0 1.96.978.978 0 0 1-.982-.98zM8.045 42.38a.652.652 0 0 1 1.307 0 .653.653 0 1 1-1.307 0zM68.59 42.468a3.55 3.55 0 0 1 7.1 0 3.55 3.55 0 0 1-7.1 0zM59.697 51.21a3.24 3.24 0 0 1 6.482 0 3.237 3.237 0 0 1-3.24 3.242 3.24 3.24 0 0 1-3.243-3.243zM51.026 51.186a2.887 2.887 0 1 1 5.775-.003 2.887 2.887 0 0 1-5.774.003zM42.883 51.186a2.615 2.615 0 0 1 2.612-2.62 2.62 2.62 0 0 1 0 5.237 2.615 2.615 0 0 1-2.612-2.617zM35.1 51.186a2.292 2.292 0 1 1 4.583-.004 2.292 2.292 0 0 1-4.584.004zM28.61 51.186a1.96 1.96 0 0 1 1.964-1.963 1.96 1.96 0 0 1 1.96 1.963 1.96 1.96 0 0 1-3.923 0zM22.425 51.186c0-.91.73-1.636 1.636-1.636a1.63 1.63 0 0 1 1.638 1.636c0 .902-.73 1.634-1.637 1.634a1.635 1.635 0 0 1-1.635-1.634zM17.19 51.186c0-.722.588-1.31 1.312-1.31.72 0 1.31.588 1.31 1.31a1.312 1.312 0 0 1-2.623 0zM12.233 51.186c0-.543.438-.985.982-.985a.983.983 0 0 1 0 1.968.982.982 0 0 1-.982-.982zM8.045 51.186a.66.66 0 0 1 .658-.658.655.655 0 0 1 0 1.307.654.654 0 0 1-.658-.65zM51.026 59.988a2.888 2.888 0 1 1 5.776-.002 2.888 2.888 0 0 1-5.776.002zM42.883 59.988a2.62 2.62 0 0 1 2.612-2.624 2.623 2.623 0 0 1 2.622 2.624 2.62 2.62 0 0 1-2.622 2.617 2.614 2.614 0 0 1-2.612-2.617zM42.883 68.787a2.612 2.612 0 0 1 2.612-2.613c1.45 0 2.622 1.17 2.622 2.613a2.616 2.616 0 0 1-5.234 0z" fill="#fff"/></svg>